<?xml version="1.0" encoding="utf-8"?>
<!-- Generator: Adobe Illustrator 25.3.1, SVG Export Plug-In . SVG Version: 6.00 Build 0)  -->
<svg version="1.1" id="Layer_1" xmlns="http://www.w3.org/2000/svg" xmlns:xlink="http://www.w3.org/1999/xlink" x="0px" y="0px"
	 viewBox="0 0 200 200" style="enable-background:new 0 0 200 200;" xml:space="preserve">
<style type="text/css">
	.st0{fill:#9B65C3;}
	.st1{fill:#BE63C5;}
	.st2{fill:#BF63C6;}
	.st3{fill:#3278B1;}
	.st4{fill:#3278B2;}
	.st5{fill:#45A4EC;}
	.st6{fill:#19BB7D;}
	.st7{fill:#08C7FB;}
	.st8{fill:#59F2F6;}
	.st9{fill:#FFA700;}
	.st10{fill:#DA3757;}
	.st11{fill:#D33C4E;}
	.st12{fill:#EE5A24;}
	.st13{fill:#8BDF55;}
	.st14{fill:#25C16F;}
	.st15{fill:#FFBB00;}
	.st16{fill:#FFA800;}
</style>
<g>
	<g>
		<g>
			<path class="st0" d="M36.71,109.48c2.06,13.87,8.58,26.29,18.04,35.76l21.83-21.83C76.6,101.32,88.06,79.84,108.57,68
				L36.71,109.48z"/>
		</g>
		<g>
			<g>
				<g>
					<path class="st0" d="M76.58,123.41c-10.88,0.01-21.91-2.74-32.01-8.57l0,0c-2.79-1.61-5.42-3.41-7.87-5.36
						c2.06,13.87,8.58,26.29,18.04,35.76L76.58,123.41L76.58,123.41z"/>
				</g>
			</g>
		</g>
		<g>
			<path class="st1" d="M76.58,123.41L76.58,123.41l-21.83,21.83c9.47,9.47,21.89,15.98,35.76,18.04L132,91.43
				C120.16,111.93,98.68,123.38,76.58,123.41z"/>
		</g>
		<g>
			<g>
				<g>
					<path class="st2" d="M85.15,155.42c-5.83-10.1-8.58-21.13-8.57-32.01l-21.83,21.83c9.47,9.47,21.88,15.98,35.76,18.04
						C88.56,160.83,86.76,158.21,85.15,155.42L85.15,155.42z"/>
				</g>
			</g>
		</g>
		<g>
			<path class="st3" d="M157.96,39.49L108.57,68c-20.51,11.84-44.84,11.02-63.99,0c-5.44,9.41-8.58,20.34-8.58,32l0,0
				c0,3.23,0.24,6.4,0.71,9.49c2.45,1.95,5.07,3.74,7.87,5.36l0,0c10.1,5.83,21.13,8.58,32.01,8.57l0,0l82.72-82.71
				C158.88,40.27,158.43,39.87,157.96,39.49z"/>
		</g>
		<g>
			<g>
				<g>
					<path class="st4" d="M44.57,114.84c10.1,5.83,21.13,8.58,32.01,8.57C76.6,101.32,88.06,79.84,108.57,68L36.7,109.48
						C39.16,111.43,41.78,113.23,44.57,114.84L44.57,114.84z"/>
				</g>
			</g>
		</g>
		<g>
			<g>
				<g>
					<path class="st5" d="M44.58,68c-5.45,9.41-8.58,20.34-8.58,32l0,0c0,3.23,0.24,6.4,0.71,9.49L108.57,68
						C88.06,79.84,63.73,79.02,44.58,68z"/>
				</g>
			</g>
		</g>
		<g>
			<path class="st6" d="M159.31,40.69c-0.43-0.43-0.88-0.83-1.35-1.21c-0.62-0.5-1.29-0.94-1.98-1.34C153.63,36.79,150.91,36,148,36
				h-48c-23.68,0-44.35,12.87-55.41,32c19.15,11.03,43.48,11.84,63.99,0c-20.51,11.84-31.97,33.32-31.99,55.42l0,0
				c22.09-0.02,43.58-11.48,55.42-31.99l28.51-49.38C160.13,41.57,159.73,41.12,159.31,40.69z"/>
		</g>
		<g>
			<g>
				<g>
					<path class="st7" d="M108.57,68l49.38-28.51c-0.62-0.5-1.29-0.94-1.98-1.34L44.58,68C63.73,79.02,88.06,79.84,108.57,68z"/>
				</g>
			</g>
		</g>
		<g>
			<g>
				<g>
					<path class="st8" d="M148,36h-48c-23.68,0-44.35,12.87-55.41,32l111.4-29.85C153.63,36.79,150.91,36,148,36z"/>
				</g>
			</g>
		</g>
		<g>
			<g>
				<g>
					<path class="st9" d="M76.58,123.41L76.58,123.41L76.58,123.41z"/>
				</g>
			</g>
		</g>
		<g>
			<path class="st10" d="M132,91.43l28.51-49.38c-0.38-0.47-0.78-0.92-1.2-1.35l-82.72,82.71l0,0c-0.01,10.88,2.74,21.91,8.57,32.01
				l0,0c1.61,2.79,3.41,5.42,5.36,7.87c3.1,0.46,6.27,0.71,9.49,0.71l0,0c11.66,0,22.59-3.13,32-8.58
				C120.98,136.26,120.16,111.93,132,91.43z"/>
		</g>
		<g>
			<g>
				<g>
					<path class="st11" d="M76.58,123.41L76.58,123.41c-0.01,10.88,2.74,21.91,8.57,32.01l0,0c1.61,2.79,3.41,5.42,5.36,7.87
						L132,91.43C120.16,111.93,98.68,123.38,76.58,123.41z"/>
				</g>
			</g>
		</g>
		<g>
			<g>
				<g>
					<path class="st12" d="M132,91.43l-41.49,71.86c3.1,0.46,6.27,0.71,9.49,0.71l0,0c11.66,0,22.59-3.13,32-8.58
						C120.98,136.26,120.16,111.93,132,91.43z"/>
				</g>
			</g>
		</g>
		<g>
			<path class="st13" d="M161.85,44.02c-0.4-0.69-0.84-1.36-1.34-1.98c-0.38-0.47-0.78-0.92-1.2-1.35
				c-0.43-0.43-0.88-0.83-1.35-1.21L108.57,68c-20.51,11.84-31.97,33.32-31.99,55.42l0,0c22.09-0.02,43.58-11.48,55.42-31.99
				c-11.84,20.51-11.02,44.84,0,63.98c19.12-11.07,32-31.73,32-55.41V52C164,49.09,163.21,46.37,161.85,44.02z"/>
		</g>
		<g>
			<g>
				<g>
					<path class="st14" d="M157.96,39.49L108.57,68c-20.51,11.84-31.97,33.32-31.99,55.42l0,0L159.3,40.7
						C158.88,40.27,158.43,39.87,157.96,39.49z"/>
				</g>
			</g>
		</g>
		<g>
			<g>
				<g>
					<path class="st13" d="M76.58,123.41c22.09-0.02,43.58-11.48,55.42-31.99l28.51-49.38c-0.38-0.47-0.78-0.92-1.21-1.35
						L76.58,123.41z"/>
				</g>
			</g>
		</g>
		<g>
			<g>
				<g>
					<path class="st15" d="M160.51,42.04L132,91.43c-11.84,20.51-11.02,44.84,0,63.98l29.85-111.39
						C161.45,43.33,161.01,42.66,160.51,42.04z"/>
				</g>
			</g>
		</g>
		<g>
			<g>
				<g>
					<path class="st16" d="M132,155.41c19.12-11.07,32-31.73,32-55.41V52c0-2.91-0.79-5.63-2.15-7.98L132,155.41z"/>
				</g>
			</g>
		</g>
	</g>
</g>
</svg>
